<svg xmlns="http://www.w3.org/2000/svg" viewBox="0 0 27.5 24.5"><defs><style>.cls-1{fill:#ffa000}</style></defs><g id="レイヤー_2" data-name="レイヤー 2"><g id="icons"><g id="グループ_651" data-name="グループ 651"><g id="グループ_611" data-name="グループ 611"><g id="グループ_607" data-name="グループ 607"><path class="cls-1" d="M20.75 15.52h-9a.75.75 0 010-1.5h9a.75.75 0 010 1.5zM8.75 15.52h-2a.75.75 0 010-1.5h2a.75.75 0 010 1.5z"/></g><g id="グループ_608" data-name="グループ 608"><path class="cls-1" d="M20.75 11.88h-9a.75.75 0 010-1.5h9a.75.75 0 010 1.5zM8.75 11.88h-2a.75.75 0 010-1.5h2a.75.75 0 010 1.5z"/></g><g id="グループ_609" data-name="グループ 609"><path class="cls-1" d="M20.75 19.16h-9a.75.75 0 010-1.5h9a.75.75 0 010 1.5zM8.75 19.16h-2a.75.75 0 010-1.5h2a.75.75 0 010 1.5z"/></g><path class="cls-1" d="M19.75 7.5a.76.76 0 01-.75-.75v-6a.75.75 0 011.5 0v6a.76.76 0 01-.75.75zM7.75 7.5A.76.76 0 017 6.75v-6a.75.75 0 011.5 0v6a.76.76 0 01-.75.75z"/><path class="cls-1" d="M23.75 24.5h-20A3.75 3.75 0 010 20.75v-14A3.75 3.75 0 013.75 3h20a3.75 3.75 0 013.75 3.75v14a3.75 3.75 0 01-3.75 3.75zm-20-20A2.25 2.25 0 001.5 6.75v14A2.25 2.25 0 003.75 23h20A2.25 2.25 0 0026 20.75v-14a2.25 2.25 0 00-2.25-2.25z" id="グループ_610" data-name="グループ 610"/></g></g></g></g></svg>