<svg xmlns="http://www.w3.org/2000/svg" viewBox="0 0 35.2 22.65"><defs><style>.cls-1{fill:#ffa000}</style></defs><g id="レイヤー_2" data-name="レイヤー 2"><g id="icons"><g id="グループ_652" data-name="グループ 652"><g id="グループ_604" data-name="グループ 604"><path id="パス_371" data-name="パス 371" class="cls-1" d="M.86 6.66a.87.87 0 00-.86.86v7.6a.87.87 0 001.73 0V7.53a.87.87 0 00-.87-.87z"/><path id="パス_372" data-name="パス 372" class="cls-1" d="M5.65 4.06a.86.86 0 00-.87.86v12.81a.87.87 0 101.73 0V4.92a.86.86 0 00-.86-.86z"/><path id="パス_373" data-name="パス 373" class="cls-1" d="M10.43 0a.86.86 0 00-.86.86v20.93a.86.86 0 001.72 0V.86a.86.86 0 00-.86-.86z"/><path id="パス_374" data-name="パス 374" class="cls-1" d="M15.21 6.23a.86.86 0 00-.86.87v8.45a.87.87 0 101.73 0V7.1a.87.87 0 00-.87-.87z"/><path id="パス_375" data-name="パス 375" class="cls-1" d="M20 8.07a.87.87 0 00-.86.86v4.78a.87.87 0 001.73 0V8.93a.87.87 0 00-.87-.86z"/><path id="パス_376" data-name="パス 376" class="cls-1" d="M24.78 3.2a.87.87 0 00-.87.87v14.52a.87.87 0 001.73 0V4.07a.87.87 0 00-.86-.87z"/><path id="パス_377" data-name="パス 377" class="cls-1" d="M29.56 6.23a.86.86 0 00-.86.87v8.45a.86.86 0 101.72 0V7.1a.86.86 0 00-.86-.87z"/><path id="パス_378" data-name="パス 378" class="cls-1" d="M34.34 7.86a.85.85 0 00-.86.86v5.21a.86.86 0 101.72 0V8.72a.85.85 0 00-.86-.86z"/></g></g></g></g></svg>