<svg xmlns="http://www.w3.org/2000/svg" xmlns:xlink="http://www.w3.org/1999/xlink" width="55.428" height="56.036" viewBox="0 0 55.428 56.036">
  <defs>
    <linearGradient id="linear-gradient" x1="0.563" y1="1.096" x2="0.311" y2="-1.201" gradientUnits="objectBoundingBox">
      <stop offset="0.212" stop-color="#fff"/>
      <stop offset="0.536" stop-color="#babbbb"/>
    </linearGradient>
  </defs>
  <g id="グループ_297" data-name="グループ 297" transform="translate(-54.994 -513.985)">
    <path id="パス_245" data-name="パス 245" d="M109.808,539.856a56.087,56.087,0,0,0-44.941-25.871,4.09,4.09,0,0,0-3.507,2.074,56.051,56.051,0,0,0,0,51.885,4.093,4.093,0,0,0,3.513,2.077,56.089,56.089,0,0,0,44.937-25.871,4.061,4.061,0,0,0,0-4.294Z" fill="#fff"/>
    <path id="パス_246" data-name="パス 246" d="M109.808,539.856a56.087,56.087,0,0,0-44.941-25.871,4.09,4.09,0,0,0-3.507,2.074,56.051,56.051,0,0,0,0,51.885,4.093,4.093,0,0,0,3.513,2.077,56.089,56.089,0,0,0,44.937-25.871,4.061,4.061,0,0,0,0-4.294Z" fill="#fff"/>
    <path id="パス_247" data-name="パス 247" d="M109.808,539.856a56.087,56.087,0,0,0-44.941-25.871,4.09,4.09,0,0,0-3.507,2.074,56.051,56.051,0,0,0,0,51.885,4.093,4.093,0,0,0,3.513,2.077,56.089,56.089,0,0,0,44.937-25.871,4.061,4.061,0,0,0,0-4.294Z" fill="url(#linear-gradient)"/>
  </g>
</svg>
